<svg xmlns="http://www.w3.org/2000/svg" style="display:none">
  <symbol id="cs-icon-translate" viewBox="0 0 24 24" fill="none" stroke="currentColor" stroke-width="1.5" stroke-linecap="round" stroke-linejoin="round">
    <circle cx="12" cy="12" r="9"/>
    <line x1="3" y1="12" x2="21" y2="12"/>
    <ellipse cx="12" cy="12" rx="4" ry="9"/>
  </symbol>
  <symbol id="cs-icon-summarize" viewBox="0 0 24 24" fill="none" stroke="currentColor" stroke-width="1.5" stroke-linecap="round" stroke-linejoin="round">
    <path d="M14 2H6a2 2 0 0 0-2 2v16a2 2 0 0 0 2 2h12a2 2 0 0 0 2-2V8z"/>
    <polyline points="14 2 14 8 20 8"/>
    <line x1="16" y1="13" x2="8" y2="13"/>
    <line x1="16" y1="17" x2="8" y2="17"/>
    <polyline points="10 9 9 9 8 9"/>
  </symbol>
  <symbol id="cs-icon-ask" viewBox="0 0 24 24" fill="none" stroke="currentColor" stroke-width="1.5" stroke-linecap="round" stroke-linejoin="round">
    <path d="M21 15a2 2 0 0 1-2 2H7l-4 4V5a2 2 0 0 1 2-2h14a2 2 0 0 1 2 2z"/>
  </symbol>
  <symbol id="cs-icon-export" viewBox="0 0 24 24" fill="none" stroke="currentColor" stroke-width="1.5" stroke-linecap="round" stroke-linejoin="round">
    <path d="M21 15v4a2 2 0 0 1-2 2H5a2 2 0 0 1-2-2v-4"/>
    <polyline points="7 10 12 15 17 10"/>
    <line x1="12" y1="15" x2="12" y2="3"/>
  </symbol>
  <symbol id="cs-icon-history" viewBox="0 0 24 24" fill="none" stroke="currentColor" stroke-width="1.5" stroke-linecap="round" stroke-linejoin="round">
    <circle cx="12" cy="12" r="10"/>
    <polyline points="12 6 12 12 16 14"/>
  </symbol>
  <symbol id="cs-icon-copy" viewBox="0 0 24 24" fill="none" stroke="currentColor" stroke-width="1.5" stroke-linecap="round" stroke-linejoin="round">
    <rect x="9" y="9" width="13" height="13" rx="2" ry="2"/>
    <path d="M5 15H4a2 2 0 0 1-2-2V4a2 2 0 0 1 2-2h9a2 2 0 0 1 2 2v1"/>
  </symbol>
  <symbol id="cs-icon-delete" viewBox="0 0 24 24" fill="none" stroke="currentColor" stroke-width="1.5" stroke-linecap="round" stroke-linejoin="round">
    <polyline points="3 6 5 6 21 6"/>
    <path d="M19 6v14a2 2 0 0 1-2 2H7a2 2 0 0 1-2-2V6m3 0V4a1 1 0 0 1 1-1h4a1 1 0 0 1 1 1v2"/>
  </symbol>
  <symbol id="cs-icon-check" viewBox="0 0 24 24" fill="none" stroke="currentColor" stroke-width="1.5" stroke-linecap="round" stroke-linejoin="round">
    <polyline points="20 6 9 17 4 12"/>
  </symbol>
  <symbol id="cs-icon-system" viewBox="0 0 24 24" fill="none" stroke="currentColor" stroke-width="1.5" stroke-linecap="round" stroke-linejoin="round">
    <rect x="2" y="3" width="20" height="14" rx="2" ry="2"/>
    <line x1="8" y1="21" x2="16" y2="21"/>
    <line x1="12" y1="17" x2="12" y2="21"/>
  </symbol>
  <symbol id="cs-icon-light" viewBox="0 0 24 24" fill="none" stroke="currentColor" stroke-width="1.5" stroke-linecap="round" stroke-linejoin="round">
    <circle cx="12" cy="12" r="5"/>
    <line x1="12" y1="1" x2="12" y2="3"/>
    <line x1="12" y1="21" x2="12" y2="23"/>
    <line x1="4.22" y1="4.22" x2="5.64" y2="5.64"/>
    <line x1="18.36" y1="18.36" x2="19.78" y2="19.78"/>
    <line x1="1" y1="12" x2="3" y2="12"/>
    <line x1="21" y1="12" x2="23" y2="12"/>
    <line x1="4.22" y1="19.78" x2="5.64" y2="18.36"/>
    <line x1="18.36" y1="5.64" x2="19.78" y2="4.22"/>
  </symbol>
  <symbol id="cs-icon-dark" viewBox="0 0 24 24" fill="none" stroke="currentColor" stroke-width="1.5" stroke-linecap="round" stroke-linejoin="round">
    <path d="M21 12.79A9 9 0 1 1 11.21 3 7 7 0 0 0 21 12.79z"/>
  </symbol>
  <symbol id="cs-icon-eye" viewBox="0 0 24 24" fill="none" stroke="currentColor" stroke-width="1.5" stroke-linecap="round" stroke-linejoin="round">
    <path d="M1 12s4-8 11-8 11 8 11 8-4 8-11 8-11-8-11-8z"/>
    <circle cx="12" cy="12" r="3"/>
  </symbol>
  <symbol id="cs-icon-eye-off" viewBox="0 0 24 24" fill="none" stroke="currentColor" stroke-width="1.5" stroke-linecap="round" stroke-linejoin="round">
    <path d="M17.94 17.94A10.07 10.07 0 0 1 12 20c-7 0-11-8-11-8a18.45 18.45 0 0 1 5.06-5.94M9.9 4.24A9.12 9.12 0 0 1 12 4c7 0 11 8 11 8a18.5 18.5 0 0 1-2.16 3.19m-6.72-1.07a3 3 0 1 1-4.24-4.24"/>
    <line x1="1" y1="1" x2="23" y2="23"/>
  </symbol>
  <symbol id="cs-icon-settings" viewBox="0 0 24 24" fill="none" stroke="currentColor" stroke-width="1.5" stroke-linecap="round" stroke-linejoin="round">
    <circle cx="12" cy="12" r="3"/>
    <path d="M19.4 15a1.65 1.65 0 0 0 .33 1.82l.06.06a2 2 0 0 1-2.83 2.83l-.06-.06a1.65 1.65 0 0 0-1.82-.33 1.65 1.65 0 0 0-1 1.51V21a2 2 0 0 1-4 0v-.09A1.65 1.65 0 0 0 9 19.4a1.65 1.65 0 0 0-1.82.33l-.06.06a2 2 0 0 1-2.83-2.83l.06-.06A1.65 1.65 0 0 0 4.68 15a1.65 1.65 0 0 0-1.51-1H3a2 2 0 0 1 0-4h.09A1.65 1.65 0 0 0 4.6 9a1.65 1.65 0 0 0-.33-1.82l-.06-.06a2 2 0 0 1 2.83-2.83l.06.06A1.65 1.65 0 0 0 9 4.68a1.65 1.65 0 0 0 1-1.51V3a2 2 0 0 1 4 0v.09a1.65 1.65 0 0 0 1 1.51 1.65 1.65 0 0 0 1.82-.33l.06-.06a2 2 0 0 1 2.83 2.83l-.06.06A1.65 1.65 0 0 0 19.4 9a1.65 1.65 0 0 0 1.51 1H21a2 2 0 0 1 0 4h-.09a1.65 1.65 0 0 0-1.51 1z"/>
  </symbol>
  <symbol id="cs-icon-send" viewBox="0 0 24 24" fill="none" stroke="currentColor" stroke-width="1.5" stroke-linecap="round" stroke-linejoin="round">
    <line x1="22" y1="2" x2="11" y2="13"/>
    <polygon points="22 2 15 22 11 13 2 9 22 2"/>
  </symbol>
  <symbol id="cs-icon-user" viewBox="0 0 24 24" fill="none" stroke="currentColor" stroke-width="1.5" stroke-linecap="round" stroke-linejoin="round">
    <path d="M20 21v-2a4 4 0 0 0-4-4H8a4 4 0 0 0-4 4v2"/>
    <circle cx="12" cy="7" r="4"/>
  </symbol>
  <symbol id="cs-icon-broom" viewBox="0 0 1024 1024" fill="currentColor">
    <path d="M933.635019 386.430542c0-40.014391-30.189886-70.101939-70.101939-70.101939H632.35019V135.393964c0-40.014391-30.189886-70.101939-70.101939-70.101939h-100.394163c-40.014391 0-70.101939 30.189886-70.101939 70.101939v180.934639H160.569258c-40.014391 0-70.101939 30.189886-70.101938 70.101939v100.394163c0 30.292225 18.318609 55.979212 46.6664 65.394364l3.581851 1.228063v269.86688c0 22.61683-4.912253 47.689786-10.131521 71.43234l-0.102339 0.614032-2.763142 5.628623c-1.944433 3.888867-1.944433 7.982411-1.944433 12.792324 0 24.868279 20.160704 45.028983 45.028982 45.028983h682.803118c4.707575 0 8.801119 0 12.792325-1.944434l0.409354-0.204677c12.280632-4.912253 20.979412-12.075954 27.426744-22.61683 5.321607-13.611033 6.140316-23.844893 2.456127-33.260044l-2.558465-5.116929-0.102339-0.307016c-7.163702-21.388767-10.336198-43.596242-10.336198-71.944034V553.447132l3.581851-1.228063c28.347791-9.415151 46.6664-35.102139 46.6664-65.394364v-100.394163zM707.671397 918.898261V737.963622c0-12.280632-7.675395-19.956026-19.956026-19.956027s-19.956026 7.675395-19.956027 19.956027v180.934639H531.956026V737.963622c0-12.280632-7.675395-19.956026-19.956026-19.956027s-19.956026 7.675395-19.956026 19.956027v180.934639H356.240656V737.963622c0-12.280632-7.675395-19.956026-19.956027-19.956027s-19.956026 7.675395-19.956026 19.956027v180.934639H162.206676l6.140316-12.280632c9.824505-27.222067 14.634419-54.444134 14.634419-83.303617V557.028983h663.051769v266.285029c0 28.859484 4.809914 56.081551 14.634419 83.303617l6.140316 12.280632H707.671397z m186.051569-431.971217c0 17.806916-12.485309 30.292225-30.292224 30.292224H160.569258c-17.806916 0-30.292225-12.485309-30.292224-30.292224v-100.394164c0-17.806916 12.485309-30.292225 30.292224-30.292224h270.992605V135.393964c0-17.806916 12.485309-30.292225 30.292225-30.292225h100.394163c17.806916 0 30.292225 12.485309 30.292225 30.292225V356.138317h270.992604c17.806916 0 30.292225 12.485309 30.292225 30.292225v100.496502z"/>
  </symbol>
  <symbol id="cs-icon-loading" viewBox="0 0 24 24" fill="none" stroke="currentColor" stroke-width="2.5" stroke-linecap="round">
    <path d="M21 12a9 9 0 0 0-9-9"/>
  </symbol>
  <symbol id="cs-icon-error" viewBox="0 0 24 24" fill="none" stroke="currentColor" stroke-width="1.5" stroke-linecap="round" stroke-linejoin="round">
    <circle cx="12" cy="12" r="9"/>
    <line x1="12" y1="8" x2="12" y2="12"/>
    <circle cx="12" cy="16" r="0.5" fill="currentColor" stroke="none"/>
  </symbol>
  <symbol id="cs-icon-cancel" viewBox="0 0 24 24" fill="none" stroke="currentColor" stroke-width="1.5" stroke-linecap="round" stroke-linejoin="round">
    <circle cx="12" cy="12" r="9"/>
    <line x1="3" y1="12" x2="21" y2="12"/>
    <ellipse cx="12" cy="12" rx="4" ry="9"/>
    <line x1="4" y1="4" x2="20" y2="20" stroke-width="2"/>
  </symbol>
</svg>
